<svg version="1.1"
	 id="svg5497" sodipodi:docname="icone_gocache_plugin.svg" inkscape:version="0.91 r13725" xmlns:dc="http://purl.org/dc/elements/1.1/" xmlns:cc="http://creativecommons.org/ns#" xmlns:rdf="http://www.w3.org/1999/02/22-rdf-syntax-ns#" xmlns:svg="http://www.w3.org/2000/svg" xmlns:sodipodi="http://sodipodi.sourceforge.net/DTD/sodipodi-0.dtd" xmlns:inkscape="http://www.inkscape.org/namespaces/inkscape"
	 xmlns="http://www.w3.org/2000/svg" xmlns:xlink="http://www.w3.org/1999/xlink" x="0px" y="0px" width="89.305px"
	 height="59.149px" viewBox="-48.015 285.481 89.305 59.149" style="enable-background:new -48.015 285.481 89.305 59.149;"
	 xml:space="preserve">
<sodipodi:namedview  inkscape:window-width="1366" inkscape:window-maximized="1" inkscape:pageshadow="2" inkscape:pageopacity="0" inkscape:window-y="-8" inkscape:current-layer="layer1" inkscape:window-x="-8" inkscape:document-units="px" inkscape:window-height="705" showgrid="false" inkscape:cy="500.82875" inkscape:cx="404.13638" inkscape:zoom="0.98994949" borderopacity="1.0" bordercolor="#666666" pagecolor="#000000" id="base">
	</sodipodi:namedview>
<g id="layer1" inkscape:groupmode="layer" inkscape:label="Camada 1">
	<g id="g5440" transform="translate(199.84769,58.873451)">
		<g id="g4168" transform="translate(90.913729,4.0406102)">
			<path id="path3382" inkscape:connector-curvature="0" style="fill:#FFFFFF;" d="M-254.22,249.554
				c-1.444-1.665-3.152-3.052-5.034-4.13l-6.143,3.12c6.134,1.562,10.672,7.119,10.672,13.739c0,7.472-5.78,13.593-13.112,14.14
				l0.009,0.039h-55.284c-5.749,0-10.411-4.66-10.411-10.41s4.662-10.41,10.411-10.41c0.088,0,0.175,0.004,0.263,0.006
				c-0.171-0.791-0.263-1.612-0.263-2.453c0-4.686,2.785-8.713,6.784-10.544c0.281-1.643,0.789-3.923,1.652-6.012
				c-7.164,1.366-12.734,7.283-13.578,14.616c-6.12,2.133-10.522,7.96-10.522,14.797c0,8.637,7.027,15.664,15.664,15.664h55.284
				c0.39,0,0.773-0.043,1.146-0.127c4.588-0.523,8.822-2.656,11.992-6.056c3.366-3.61,5.219-8.315,5.219-13.25
				C-249.471,257.605-251.158,253.083-254.22,249.554"/>
			<g id="g3384" transform="matrix(1.25,0,0,-1.25,-3.027035,1004.5456)">
				<g id="g3386">
					<g id="g3392">
						<g id="g3394">
							<path id="path3402" inkscape:connector-curvature="0" style="fill:#FFFFFF;" d="M-244.358,617.573
								c-5.175-6.464-5.986-15.013-2.825-22.085l0,0c-2.12,5.924-1.21,12.777,3.011,18.049l0,0c6.47,8.08,18.264,9.386,26.344,2.917
								l0,0c2.221-1.778,3.643-3.674,4.819-6.068l0,0l5.11,2.09c-1.64,3.65-3.586,6.141-6.434,8.421l0,0
								c-3.94,3.154-8.656,4.686-13.338,4.686l0,0C-233.934,625.584-240.138,622.842-244.358,617.573"/>
						</g>
					</g>
				</g>
			</g>
			<g id="g3404" transform="matrix(1.25,0,0,-1.25,-3.027035,1004.5456)">
				<g id="g3406">
					<g id="g3412">
						<g id="g3414">
							<path id="path3422" inkscape:connector-curvature="0" style="fill:#FFFFFF;" d="M-228.774,601.822
								c-0.414,0.265-0.906,0.421-1.434,0.421l0,0c-1.474,0-2.668-1.195-2.668-2.669l0,0c0-1.473,1.194-2.669,2.668-2.669l0,0
								c1.293,0,2.37,0.92,2.616,2.14l0,0l21.061,10.186l-0.428,1.1L-228.774,601.822z"/>
						</g>
					</g>
				</g>
			</g>
		</g>
	</g>
</g>
</svg>
