<svg version="1.1"
	 id="svg5497" sodipodi:docname="logo_gocache_plugin.svg" inkscape:version="0.91 r13725" xmlns:dc="http://purl.org/dc/elements/1.1/" xmlns:cc="http://creativecommons.org/ns#" xmlns:rdf="http://www.w3.org/1999/02/22-rdf-syntax-ns#" xmlns:svg="http://www.w3.org/2000/svg" xmlns:sodipodi="http://sodipodi.sourceforge.net/DTD/sodipodi-0.dtd" xmlns:inkscape="http://www.inkscape.org/namespaces/inkscape"
	 xmlns="http://www.w3.org/2000/svg" xmlns:xlink="http://www.w3.org/1999/xlink" x="0px" y="0px" width="335.524px"
	 height="78.292px" viewBox="-171.124 275.909 335.524 78.292" style="enable-background:new -171.124 275.909 335.524 78.292;"
	 xml:space="preserve">
<sodipodi:namedview  inkscape:window-width="1366" inkscape:window-maximized="1" inkscape:pageshadow="2" inkscape:pageopacity="0.0" inkscape:window-y="-8" inkscape:current-layer="layer1" inkscape:window-x="-8" inkscape:document-units="px" inkscape:window-height="705" showgrid="false" inkscape:cy="520" inkscape:cx="375" inkscape:zoom="0.35" borderopacity="1.0" bordercolor="#666666" pagecolor="#ffffff" id="base">
	</sodipodi:namedview>
<g id="layer1" inkscape:groupmode="layer" inkscape:label="Camada 1">
	<g id="g5440" transform="translate(199.84769,58.873451)">
		<g id="path3382">
			<path inkscape:connector-curvature="0" style="fill:#296194;" d="M-259.051,252.757c-1.911-2.204-4.172-4.04-6.663-5.467
				l-8.131,4.13c8.119,2.068,14.126,9.423,14.126,18.185c0,9.89-7.651,17.992-17.355,18.716l0.012,0.052h-73.176
				c-7.61,0-13.78-6.168-13.78-13.779s6.171-13.779,13.78-13.779c0.116,0,0.232,0.005,0.348,0.007
				c-0.226-1.047-0.348-2.134-0.348-3.247c0-6.203,3.686-11.533,8.98-13.956c0.372-2.175,1.044-5.193,2.187-7.958
				c-9.483,1.808-16.855,9.64-17.972,19.346c-8.101,2.823-13.927,10.536-13.927,19.586c0,11.432,9.301,20.733,20.733,20.733h73.176
				c0.516,0,1.023-0.057,1.517-0.168c6.073-0.692,11.677-3.516,15.873-8.016c4.455-4.778,6.908-11.006,6.908-17.538
				C-252.765,263.413-254.998,257.428-259.051,252.757"/>
		</g>
		<g id="g3384" transform="matrix(1.25,0,0,-1.25,-3.027035,1004.5456)">
			<g id="g3386">
				<g id="g3392">
					<g id="g3394">
						<g id="path3402">
							<g>
								<defs>
									<path id="SVGID_1_" inkscape:connector-curvature="0" d="M-262.269,619.405c-6.85-8.556-7.923-19.871-3.739-29.232l0,0
										c-2.806,7.841-1.601,16.912,3.986,23.89l0,0c8.563,10.695,24.175,12.423,34.87,3.861l0,0
										c2.94-2.353,4.822-4.864,6.379-8.032l0,0l6.764,2.767c-2.171,4.832-4.746,8.128-8.517,11.146l0,0
										c-5.215,4.174-11.457,6.203-17.655,6.203l0,0C-248.472,630.009-256.684,626.38-262.269,619.405"/>
								</defs>
								<clipPath id="SVGID_2_">
									<use xlink:href="#SVGID_1_"  style="overflow:visible;"/>
								</clipPath>
								<rect x="-270.406" y="585.193" style="clip-path:url(#SVGID_2_);fill:#F7963D;" width="2.148" height="49.795"/>
								<rect x="-268.556" y="585.193" style="clip-path:url(#SVGID_2_);fill:#F7963D;" width="0.82" height="49.795"/>
								<rect x="-267.899" y="585.193" style="clip-path:url(#SVGID_2_);fill:#F7953D;" width="0.82" height="49.795"/>
								<rect x="-267.243" y="585.193" style="clip-path:url(#SVGID_2_);fill:#F6943D;" width="0.82" height="49.795"/>
								<rect x="-266.587" y="585.193" style="clip-path:url(#SVGID_2_);fill:#F6933D;" width="0.82" height="49.795"/>
								<rect x="-265.931" y="585.193" style="clip-path:url(#SVGID_2_);fill:#F5923D;" width="0.82" height="49.795"/>
								<rect x="-265.275" y="585.193" style="clip-path:url(#SVGID_2_);fill:#F5913D;" width="0.82" height="49.795"/>
								<rect x="-264.618" y="585.193" style="clip-path:url(#SVGID_2_);fill:#F4903D;" width="0.82" height="49.795"/>
								<rect x="-263.962" y="585.193" style="clip-path:url(#SVGID_2_);fill:#F48F3D;" width="0.82" height="49.795"/>
								<rect x="-263.306" y="585.193" style="clip-path:url(#SVGID_2_);fill:#F38E3D;" width="0.82" height="49.795"/>
								<rect x="-262.65" y="585.193" style="clip-path:url(#SVGID_2_);fill:#F38D3D;" width="0.82" height="49.795"/>
								<rect x="-261.994" y="585.193" style="clip-path:url(#SVGID_2_);fill:#F38C3D;" width="0.82" height="49.795"/>
								<rect x="-261.337" y="585.193" style="clip-path:url(#SVGID_2_);fill:#F28B3C;" width="0.82" height="49.795"/>
								<rect x="-260.681" y="585.193" style="clip-path:url(#SVGID_2_);fill:#F28A3C;" width="0.82" height="49.795"/>
								<rect x="-260.025" y="585.193" style="clip-path:url(#SVGID_2_);fill:#F1893C;" width="0.82" height="49.795"/>
								<rect x="-259.369" y="585.193" style="clip-path:url(#SVGID_2_);fill:#F1883C;" width="0.82" height="49.795"/>
								<rect x="-258.713" y="585.193" style="clip-path:url(#SVGID_2_);fill:#F0873C;" width="0.82" height="49.795"/>
								<rect x="-258.056" y="585.193" style="clip-path:url(#SVGID_2_);fill:#F0863C;" width="0.82" height="49.795"/>
								<rect x="-257.4" y="585.193" style="clip-path:url(#SVGID_2_);fill:#F0853C;" width="0.82" height="49.795"/>
								<rect x="-256.744" y="585.193" style="clip-path:url(#SVGID_2_);fill:#EF843C;" width="0.82" height="49.795"/>
								<rect x="-256.088" y="585.193" style="clip-path:url(#SVGID_2_);fill:#EF833C;" width="0.82" height="49.795"/>
								<rect x="-255.432" y="585.193" style="clip-path:url(#SVGID_2_);fill:#EE823C;" width="0.82" height="49.795"/>
								<rect x="-254.775" y="585.193" style="clip-path:url(#SVGID_2_);fill:#EE813C;" width="0.82" height="49.795"/>
								<rect x="-254.119" y="585.193" style="clip-path:url(#SVGID_2_);fill:#ED803C;" width="0.82" height="49.795"/>
								<rect x="-253.463" y="585.193" style="clip-path:url(#SVGID_2_);fill:#ED7F3C;" width="0.82" height="49.795"/>
								<rect x="-252.807" y="585.193" style="clip-path:url(#SVGID_2_);fill:#EC7E3C;" width="0.82" height="49.795"/>
								<rect x="-252.151" y="585.193" style="clip-path:url(#SVGID_2_);fill:#EC7D3C;" width="0.82" height="49.795"/>
								<rect x="-251.494" y="585.193" style="clip-path:url(#SVGID_2_);fill:#EC7C3C;" width="0.82" height="49.795"/>
								<rect x="-250.838" y="585.193" style="clip-path:url(#SVGID_2_);fill:#EB7B3C;" width="0.82" height="49.795"/>
								<rect x="-250.182" y="585.193" style="clip-path:url(#SVGID_2_);fill:#EB7A3C;" width="0.82" height="49.795"/>
								<rect x="-249.526" y="585.193" style="clip-path:url(#SVGID_2_);fill:#EA793C;" width="0.82" height="49.795"/>
								<rect x="-248.87" y="585.193" style="clip-path:url(#SVGID_2_);fill:#EA783C;" width="0.82" height="49.795"/>
								<rect x="-248.213" y="585.193" style="clip-path:url(#SVGID_2_);fill:#E9773B;" width="0.82" height="49.795"/>
								<rect x="-247.557" y="585.193" style="clip-path:url(#SVGID_2_);fill:#E9763B;" width="0.82" height="49.795"/>
								<rect x="-246.901" y="585.193" style="clip-path:url(#SVGID_2_);fill:#E9753B;" width="0.82" height="49.795"/>
								<rect x="-246.245" y="585.193" style="clip-path:url(#SVGID_2_);fill:#E8743B;" width="0.82" height="49.795"/>
								<rect x="-245.589" y="585.193" style="clip-path:url(#SVGID_2_);fill:#E8733B;" width="0.82" height="49.795"/>
								<rect x="-244.932" y="585.193" style="clip-path:url(#SVGID_2_);fill:#E7723B;" width="0.82" height="49.795"/>
								<rect x="-244.276" y="585.193" style="clip-path:url(#SVGID_2_);fill:#E7713B;" width="0.82" height="49.795"/>
								<rect x="-243.62" y="585.193" style="clip-path:url(#SVGID_2_);fill:#E6703B;" width="0.82" height="49.795"/>
								<rect x="-242.964" y="585.193" style="clip-path:url(#SVGID_2_);fill:#E66F3B;" width="0.82" height="49.795"/>
								<rect x="-242.308" y="585.193" style="clip-path:url(#SVGID_2_);fill:#E56E3B;" width="0.82" height="49.795"/>
								<rect x="-241.651" y="585.193" style="clip-path:url(#SVGID_2_);fill:#E56D3B;" width="0.82" height="49.795"/>
								<rect x="-240.995" y="585.193" style="clip-path:url(#SVGID_2_);fill:#E56B3B;" width="0.82" height="49.795"/>
								<rect x="-240.339" y="585.193" style="clip-path:url(#SVGID_2_);fill:#E46A3B;" width="0.82" height="49.795"/>
								<rect x="-239.683" y="585.193" style="clip-path:url(#SVGID_2_);fill:#E4693B;" width="0.82" height="49.795"/>
								<rect x="-239.027" y="585.193" style="clip-path:url(#SVGID_2_);fill:#E3683B;" width="0.82" height="49.795"/>
								<rect x="-238.37" y="585.193" style="clip-path:url(#SVGID_2_);fill:#E3673B;" width="0.82" height="49.795"/>
								<rect x="-237.714" y="585.193" style="clip-path:url(#SVGID_2_);fill:#E2663B;" width="0.82" height="49.795"/>
								<rect x="-237.058" y="585.193" style="clip-path:url(#SVGID_2_);fill:#E2653B;" width="0.82" height="49.795"/>
								<rect x="-236.402" y="585.193" style="clip-path:url(#SVGID_2_);fill:#E1643B;" width="0.82" height="49.795"/>
								<rect x="-235.746" y="585.193" style="clip-path:url(#SVGID_2_);fill:#E1633B;" width="0.82" height="49.795"/>
								<rect x="-235.089" y="585.193" style="clip-path:url(#SVGID_2_);fill:#E1623B;" width="0.82" height="49.795"/>
								<rect x="-234.433" y="585.193" style="clip-path:url(#SVGID_2_);fill:#E0613A;" width="0.82" height="49.795"/>
								<rect x="-233.777" y="585.193" style="clip-path:url(#SVGID_2_);fill:#E0603A;" width="0.82" height="49.795"/>
								<rect x="-233.121" y="585.193" style="clip-path:url(#SVGID_2_);fill:#DF5F3A;" width="0.82" height="49.795"/>
								<rect x="-232.465" y="585.193" style="clip-path:url(#SVGID_2_);fill:#DF5E3A;" width="0.82" height="49.795"/>
								<rect x="-231.809" y="585.193" style="clip-path:url(#SVGID_2_);fill:#DE5D3A;" width="0.82" height="49.795"/>
								<rect x="-231.152" y="585.193" style="clip-path:url(#SVGID_2_);fill:#DE5C3A;" width="0.82" height="49.795"/>
								<rect x="-230.496" y="585.193" style="clip-path:url(#SVGID_2_);fill:#DE5B3A;" width="0.82" height="49.795"/>
								<rect x="-229.84" y="585.193" style="clip-path:url(#SVGID_2_);fill:#DD5A3A;" width="0.82" height="49.795"/>
								<rect x="-229.184" y="585.193" style="clip-path:url(#SVGID_2_);fill:#DD593A;" width="0.82" height="49.795"/>
								<rect x="-228.528" y="585.193" style="clip-path:url(#SVGID_2_);fill:#DC583A;" width="0.82" height="49.795"/>
								<rect x="-227.871" y="585.193" style="clip-path:url(#SVGID_2_);fill:#DC573A;" width="0.82" height="49.795"/>
								<rect x="-227.215" y="585.193" style="clip-path:url(#SVGID_2_);fill:#DB563A;" width="0.82" height="49.795"/>
								<rect x="-226.559" y="585.193" style="clip-path:url(#SVGID_2_);fill:#DB553A;" width="0.82" height="49.795"/>
								<rect x="-225.903" y="585.193" style="clip-path:url(#SVGID_2_);fill:#DA543A;" width="0.82" height="49.795"/>
								<rect x="-225.247" y="585.193" style="clip-path:url(#SVGID_2_);fill:#DA533A;" width="0.82" height="49.795"/>
								<rect x="-224.59" y="585.193" style="clip-path:url(#SVGID_2_);fill:#DA523A;" width="0.82" height="49.795"/>
								<rect x="-223.934" y="585.193" style="clip-path:url(#SVGID_2_);fill:#D9513A;" width="0.82" height="49.795"/>
								<rect x="-223.278" y="585.193" style="clip-path:url(#SVGID_2_);fill:#D9503A;" width="0.82" height="49.795"/>
								<rect x="-222.622" y="585.193" style="clip-path:url(#SVGID_2_);fill:#D84F3A;" width="0.82" height="49.795"/>
								<rect x="-221.966" y="585.193" style="clip-path:url(#SVGID_2_);fill:#D84E3A;" width="0.82" height="49.795"/>
								<rect x="-221.309" y="585.193" style="clip-path:url(#SVGID_2_);fill:#D74D39;" width="0.82" height="49.795"/>
								<rect x="-220.653" y="585.193" style="clip-path:url(#SVGID_2_);fill:#D74C39;" width="0.82" height="49.795"/>
								<rect x="-219.997" y="585.193" style="clip-path:url(#SVGID_2_);fill:#D74B39;" width="0.82" height="49.795"/>
								<rect x="-219.341" y="585.193" style="clip-path:url(#SVGID_2_);fill:#D64A39;" width="0.82" height="49.795"/>
								<rect x="-218.685" y="585.193" style="clip-path:url(#SVGID_2_);fill:#D64939;" width="0.82" height="49.795"/>
								<rect x="-218.028" y="585.193" style="clip-path:url(#SVGID_2_);fill:#D54839;" width="0.82" height="49.795"/>
								<rect x="-217.372" y="585.193" style="clip-path:url(#SVGID_2_);fill:#D54739;" width="0.82" height="49.795"/>
								<rect x="-216.716" y="585.193" style="clip-path:url(#SVGID_2_);fill:#D44639;" width="0.82" height="49.795"/>
								<rect x="-216.06" y="585.193" style="clip-path:url(#SVGID_2_);fill:#D44539;" width="0.82" height="49.795"/>
								<rect x="-215.404" y="585.193" style="clip-path:url(#SVGID_2_);fill:#D34439;" width="0.82" height="49.795"/>
								<rect x="-214.747" y="585.193" style="clip-path:url(#SVGID_2_);fill:#D34339;" width="0.82" height="49.795"/>
								<rect x="-214.009" y="585.193" style="clip-path:url(#SVGID_2_);fill:#D34339;" width="0" height="49.795"/>
							</g>
						</g>
					</g>
				</g>
			</g>
		</g>
		<g id="g3404" transform="matrix(1.25,0,0,-1.25,-3.027035,1004.5456)">
			<g id="g3406">
				<g id="g3412">
					<g id="g3414">
						<g id="path3422">
							<g>
								<defs>
									<path id="SVGID_3_" inkscape:connector-curvature="0" d="M-241.642,598.557c-0.549,0.35-1.199,0.557-1.899,0.557l0,0
										c-1.951,0-3.531-1.582-3.531-3.532l0,0c0-1.949,1.581-3.533,3.531-3.533l0,0c1.711,0,3.138,1.218,3.463,2.833l0,0
										l27.877,13.482l-0.567,1.456L-241.642,598.557z"/>
								</defs>
								<clipPath id="SVGID_4_">
									<use xlink:href="#SVGID_3_"  style="overflow:visible;"/>
								</clipPath>
								<rect x="-247.073" y="589.828" style="clip-path:url(#SVGID_4_);fill:#F7963D;" width="0" height="22.213"/>
								<rect x="-247.125" y="589.828" style="clip-path:url(#SVGID_4_);fill:#F7963D;" width="0.525" height="22.213"/>
								<rect x="-246.705" y="589.828" style="clip-path:url(#SVGID_4_);fill:#F7953D;" width="0.525" height="22.213"/>
								<rect x="-246.285" y="589.828" style="clip-path:url(#SVGID_4_);fill:#F6943D;" width="0.525" height="22.213"/>
								<rect x="-245.865" y="589.828" style="clip-path:url(#SVGID_4_);fill:#F6933D;" width="0.525" height="22.213"/>
								<rect x="-245.445" y="589.828" style="clip-path:url(#SVGID_4_);fill:#F5923D;" width="0.525" height="22.213"/>
								<rect x="-245.024" y="589.828" style="clip-path:url(#SVGID_4_);fill:#F5913D;" width="0.525" height="22.213"/>
								<rect x="-244.604" y="589.828" style="clip-path:url(#SVGID_4_);fill:#F4903D;" width="0.525" height="22.213"/>
								<rect x="-244.184" y="589.828" style="clip-path:url(#SVGID_4_);fill:#F48F3D;" width="0.525" height="22.213"/>
								<rect x="-243.764" y="589.828" style="clip-path:url(#SVGID_4_);fill:#F38E3D;" width="0.525" height="22.213"/>
								<rect x="-243.344" y="589.828" style="clip-path:url(#SVGID_4_);fill:#F38D3D;" width="0.525" height="22.213"/>
								<rect x="-242.924" y="589.828" style="clip-path:url(#SVGID_4_);fill:#F38C3D;" width="0.525" height="22.213"/>
								<rect x="-242.504" y="589.828" style="clip-path:url(#SVGID_4_);fill:#F28B3C;" width="0.525" height="22.213"/>
								<rect x="-242.083" y="589.828" style="clip-path:url(#SVGID_4_);fill:#F28A3C;" width="0.525" height="22.213"/>
								<rect x="-241.663" y="589.828" style="clip-path:url(#SVGID_4_);fill:#F1893C;" width="0.525" height="22.213"/>
								<rect x="-241.243" y="589.828" style="clip-path:url(#SVGID_4_);fill:#F1883C;" width="0.525" height="22.213"/>
								<rect x="-240.823" y="589.828" style="clip-path:url(#SVGID_4_);fill:#F0873C;" width="0.525" height="22.213"/>
								<rect x="-240.403" y="589.828" style="clip-path:url(#SVGID_4_);fill:#F0863C;" width="0.525" height="22.213"/>
								<rect x="-239.983" y="589.828" style="clip-path:url(#SVGID_4_);fill:#F0853C;" width="0.525" height="22.213"/>
								<rect x="-239.563" y="589.828" style="clip-path:url(#SVGID_4_);fill:#EF843C;" width="0.525" height="22.213"/>
								<rect x="-239.143" y="589.828" style="clip-path:url(#SVGID_4_);fill:#EF833C;" width="0.525" height="22.213"/>
								<rect x="-238.722" y="589.828" style="clip-path:url(#SVGID_4_);fill:#EE823C;" width="0.525" height="22.213"/>
								<rect x="-238.302" y="589.828" style="clip-path:url(#SVGID_4_);fill:#EE813C;" width="0.525" height="22.213"/>
								<rect x="-237.882" y="589.828" style="clip-path:url(#SVGID_4_);fill:#ED803C;" width="0.525" height="22.213"/>
								<rect x="-237.462" y="589.828" style="clip-path:url(#SVGID_4_);fill:#ED7F3C;" width="0.525" height="22.213"/>
								<rect x="-237.042" y="589.828" style="clip-path:url(#SVGID_4_);fill:#EC7E3C;" width="0.525" height="22.213"/>
								<rect x="-236.622" y="589.828" style="clip-path:url(#SVGID_4_);fill:#EC7D3C;" width="0.525" height="22.213"/>
								<rect x="-236.202" y="589.828" style="clip-path:url(#SVGID_4_);fill:#EC7C3C;" width="0.525" height="22.213"/>
								<rect x="-235.781" y="589.828" style="clip-path:url(#SVGID_4_);fill:#EB7B3C;" width="0.525" height="22.213"/>
								<rect x="-235.361" y="589.828" style="clip-path:url(#SVGID_4_);fill:#EB7A3C;" width="0.525" height="22.213"/>
								<rect x="-234.941" y="589.828" style="clip-path:url(#SVGID_4_);fill:#EA793C;" width="0.525" height="22.213"/>
								<rect x="-234.521" y="589.828" style="clip-path:url(#SVGID_4_);fill:#EA783C;" width="0.525" height="22.213"/>
								<rect x="-234.101" y="589.828" style="clip-path:url(#SVGID_4_);fill:#E9773B;" width="0.525" height="22.213"/>
								<rect x="-233.681" y="589.828" style="clip-path:url(#SVGID_4_);fill:#E9763B;" width="0.525" height="22.213"/>
								<rect x="-233.261" y="589.828" style="clip-path:url(#SVGID_4_);fill:#E9753B;" width="0.525" height="22.213"/>
								<rect x="-232.841" y="589.828" style="clip-path:url(#SVGID_4_);fill:#E8743B;" width="0.525" height="22.213"/>
								<rect x="-232.42" y="589.828" style="clip-path:url(#SVGID_4_);fill:#E8733B;" width="0.525" height="22.213"/>
								<rect x="-232" y="589.828" style="clip-path:url(#SVGID_4_);fill:#E7723B;" width="0.525" height="22.213"/>
								<rect x="-231.58" y="589.828" style="clip-path:url(#SVGID_4_);fill:#E7713B;" width="0.525" height="22.213"/>
								<rect x="-231.16" y="589.828" style="clip-path:url(#SVGID_4_);fill:#E6703B;" width="0.525" height="22.213"/>
								<rect x="-230.74" y="589.828" style="clip-path:url(#SVGID_4_);fill:#E66F3B;" width="0.525" height="22.213"/>
								<rect x="-230.32" y="589.828" style="clip-path:url(#SVGID_4_);fill:#E56E3B;" width="0.525" height="22.213"/>
								<rect x="-229.9" y="589.828" style="clip-path:url(#SVGID_4_);fill:#E56D3B;" width="0.525" height="22.213"/>
								<rect x="-229.48" y="589.828" style="clip-path:url(#SVGID_4_);fill:#E56B3B;" width="0.525" height="22.213"/>
								<rect x="-229.059" y="589.828" style="clip-path:url(#SVGID_4_);fill:#E46A3B;" width="0.525" height="22.213"/>
								<rect x="-228.639" y="589.828" style="clip-path:url(#SVGID_4_);fill:#E4693B;" width="0.525" height="22.213"/>
								<rect x="-228.219" y="589.828" style="clip-path:url(#SVGID_4_);fill:#E3683B;" width="0.525" height="22.213"/>
								<rect x="-227.799" y="589.828" style="clip-path:url(#SVGID_4_);fill:#E3673B;" width="0.525" height="22.213"/>
								<rect x="-227.379" y="589.828" style="clip-path:url(#SVGID_4_);fill:#E2663B;" width="0.525" height="22.213"/>
								<rect x="-226.959" y="589.828" style="clip-path:url(#SVGID_4_);fill:#E2653B;" width="0.525" height="22.213"/>
								<rect x="-226.539" y="589.828" style="clip-path:url(#SVGID_4_);fill:#E1643B;" width="0.525" height="22.213"/>
								<rect x="-226.118" y="589.828" style="clip-path:url(#SVGID_4_);fill:#E1633B;" width="0.525" height="22.213"/>
								<rect x="-225.698" y="589.828" style="clip-path:url(#SVGID_4_);fill:#E1623B;" width="0.525" height="22.213"/>
								<rect x="-225.278" y="589.828" style="clip-path:url(#SVGID_4_);fill:#E0613A;" width="0.525" height="22.213"/>
								<rect x="-224.858" y="589.828" style="clip-path:url(#SVGID_4_);fill:#E0603A;" width="0.525" height="22.213"/>
								<rect x="-224.438" y="589.828" style="clip-path:url(#SVGID_4_);fill:#DF5F3A;" width="0.525" height="22.213"/>
								<rect x="-224.018" y="589.828" style="clip-path:url(#SVGID_4_);fill:#DF5E3A;" width="0.525" height="22.213"/>
								<rect x="-223.598" y="589.828" style="clip-path:url(#SVGID_4_);fill:#DE5D3A;" width="0.525" height="22.213"/>
								<rect x="-223.178" y="589.828" style="clip-path:url(#SVGID_4_);fill:#DE5C3A;" width="0.525" height="22.213"/>
								<rect x="-222.757" y="589.828" style="clip-path:url(#SVGID_4_);fill:#DE5B3A;" width="0.525" height="22.213"/>
								<rect x="-222.337" y="589.828" style="clip-path:url(#SVGID_4_);fill:#DD5A3A;" width="0.525" height="22.213"/>
								<rect x="-221.917" y="589.828" style="clip-path:url(#SVGID_4_);fill:#DD593A;" width="0.525" height="22.213"/>
								<rect x="-221.497" y="589.828" style="clip-path:url(#SVGID_4_);fill:#DC583A;" width="0.525" height="22.213"/>
								<rect x="-221.077" y="589.828" style="clip-path:url(#SVGID_4_);fill:#DC573A;" width="0.525" height="22.213"/>
								<rect x="-220.657" y="589.828" style="clip-path:url(#SVGID_4_);fill:#DB563A;" width="0.525" height="22.213"/>
								<rect x="-220.237" y="589.828" style="clip-path:url(#SVGID_4_);fill:#DB553A;" width="0.525" height="22.213"/>
								<rect x="-219.817" y="589.828" style="clip-path:url(#SVGID_4_);fill:#DA543A;" width="0.525" height="22.213"/>
								<rect x="-219.396" y="589.828" style="clip-path:url(#SVGID_4_);fill:#DA533A;" width="0.525" height="22.213"/>
								<rect x="-218.976" y="589.828" style="clip-path:url(#SVGID_4_);fill:#DA523A;" width="0.525" height="22.213"/>
								<rect x="-218.556" y="589.828" style="clip-path:url(#SVGID_4_);fill:#D9513A;" width="0.525" height="22.213"/>
								<rect x="-218.136" y="589.828" style="clip-path:url(#SVGID_4_);fill:#D9503A;" width="0.525" height="22.213"/>
								<rect x="-217.716" y="589.828" style="clip-path:url(#SVGID_4_);fill:#D84F3A;" width="0.525" height="22.213"/>
								<rect x="-217.296" y="589.828" style="clip-path:url(#SVGID_4_);fill:#D84E3A;" width="0.525" height="22.213"/>
								<rect x="-216.876" y="589.828" style="clip-path:url(#SVGID_4_);fill:#D74D39;" width="0.525" height="22.213"/>
								<rect x="-216.455" y="589.828" style="clip-path:url(#SVGID_4_);fill:#D74C39;" width="0.525" height="22.213"/>
								<rect x="-216.035" y="589.828" style="clip-path:url(#SVGID_4_);fill:#D74B39;" width="0.525" height="22.213"/>
								<rect x="-215.615" y="589.828" style="clip-path:url(#SVGID_4_);fill:#D64A39;" width="0.525" height="22.213"/>
								<rect x="-215.195" y="589.828" style="clip-path:url(#SVGID_4_);fill:#D64939;" width="0.525" height="22.213"/>
								<rect x="-214.775" y="589.828" style="clip-path:url(#SVGID_4_);fill:#D54839;" width="0.525" height="22.213"/>
								<rect x="-214.355" y="589.828" style="clip-path:url(#SVGID_4_);fill:#D54739;" width="0.525" height="22.213"/>
								<rect x="-213.935" y="589.828" style="clip-path:url(#SVGID_4_);fill:#D44639;" width="0.525" height="22.213"/>
								<rect x="-213.515" y="589.828" style="clip-path:url(#SVGID_4_);fill:#D44539;" width="0.525" height="22.213"/>
								<rect x="-213.094" y="589.828" style="clip-path:url(#SVGID_4_);fill:#D34439;" width="0.525" height="22.213"/>
								<rect x="-212.674" y="589.828" style="clip-path:url(#SVGID_4_);fill:#D34339;" width="0.525" height="22.213"/>
							</g>
						</g>
					</g>
				</g>
			</g>
		</g>
		<g id="path3434">
			<path inkscape:connector-curvature="0" style="fill:#F1623B;" d="M-221.538,242.617c0-3.722-2.784-5.578-8.363-5.578
				c-3.984,0-9.3,1.326-9.3,12.614c0,10.294,4.983,11.689,9.898,11.689c2.721,0,5.31-0.533,7.764-1.526V242.617L-221.538,242.617z
				 M-216.752,242.815v24.972c0,5.246-2.523,11.422-14.412,11.422c-3.849,0-7.04-0.597-9.428-1.198v-4.514
				c2.124,0.596,5.178,1.191,8.895,1.191c8.969,0,10.159-3.455,10.159-6.77v-3.324c-2.454,0.803-5.105,1.198-7.764,1.198
				c-6.707,0-14.675-2.789-14.675-16.139c0-14.74,8.834-16.998,14.077-16.998C-217.682,232.655-216.752,240.425-216.752,242.815"/>
		</g>
		<g id="path3438">
			<path inkscape:connector-curvature="0" style="fill:#F1623B;" d="M-188.329,249.79c0-8.903-3.251-12.751-10.822-12.751
				c-7.501,0-10.759,3.848-10.759,12.751c0,8.897,3.257,12.748,10.759,12.748C-191.58,262.538-188.329,258.688-188.329,249.79
				 M-183.545,249.79c0,14.147-8.502,17.13-15.606,17.13c-7.107,0-15.541-2.983-15.541-17.13c0-14.147,8.434-17.136,15.541-17.136
				C-192.047,232.654-183.545,235.643-183.545,249.79"/>
		</g>
		<g id="path3442">
			<path inkscape:connector-curvature="0" style="fill:#2A6194;" d="M-181.618,249.856c0,11.022,5.576,17.066,15.676,17.066
				c3.517,0,6.704-0.735,9.559-1.856v-6.646c-2.457,0.997-5.181,1.663-8.233,1.663c-5.58,0-9.031-1.725-9.031-10.226
				c0-8.567,3.451-10.228,9.031-10.228c3.052,0,5.776,0.597,8.233,1.592v-6.641c-2.855-1.126-6.042-1.86-9.559-1.86
				C-176.042,232.72-181.618,238.831-181.618,249.856"/>
		</g>
		<g id="path3446">
			<path inkscape:connector-curvature="0" style="fill:#2A6194;" d="M-135.066,254.833c0,3.055-1.592,5.047-6.044,5.047
				c-4.184,0-6.24-1.861-6.24-5.309c0-2.725,2.122-4.316,7.505-4.316c1.792,0,3.383,0.197,4.778,0.397L-135.066,254.833
				L-135.066,254.833z M-141.708,232.719c-3.983,0-7.371,0.735-10.158,1.861v6.441c2.457-0.995,5.711-1.661,9.694-1.661
				c5.181,0,7.04,2.657,7.04,6.244c-1.794-0.267-3.787-0.463-5.846-0.463c-13.28,0-14.274,7.97-14.274,10.428
				c0,5.508,3.718,11.353,14.209,11.353c10.294,0,13.947-5.776,13.947-11.156v-8.966
				C-127.095,237.703-132.28,232.719-141.708,232.719"/>
		</g>
		<g id="path3450">
			<path inkscape:connector-curvature="0" style="fill:#2A6194;" d="M-125.17,249.856c0,11.022,5.579,17.066,15.676,17.066
				c3.516,0,6.704-0.735,9.558-1.856v-6.646c-2.455,0.997-5.177,1.663-8.232,1.663c-5.58,0-9.032-1.725-9.032-10.226
				c0-8.567,3.452-10.228,9.032-10.228c3.055,0,5.776,0.597,8.232,1.592v-6.641c-2.854-1.126-6.042-1.86-9.558-1.86
				C-119.591,232.72-125.17,238.831-125.17,249.856"/>
		</g>
		<g id="path3454">
			<path inkscape:connector-curvature="0" style="fill:#2A6194;" d="M-82.402,232.72c-2.588,0-4.778,0.402-6.638,1.132v-13.217
				h-7.97v45.754h7.97v-25.632c1.326-0.598,3.118-1.001,5.313-1.001c7.435,0,8.099,3.125,8.099,6.046v20.586h7.906v-19.923
				C-67.721,237.833-73.169,232.72-82.402,232.72"/>
		</g>
		<g id="path3458">
			<path inkscape:connector-curvature="0" style="fill:#2A6194;" d="M-56.896,247.332c0.461-5.913,2.721-8.171,6.639-8.171
				c4.25,0,6.308,3.985,6.707,8.171H-56.896L-56.896,247.332z M-35.448,248.726c0-8.302-4.45-16.072-14.809-16.072
				c-10.823,0-14.808,7.637-14.808,17.533c0,14.082,8.83,16.733,15.406,16.733c5.312,0,9.428-1.329,12.483-2.983v-6.447
				c-2.789,1.332-6.576,2.592-11.289,2.592c-3.852,0-7.971-0.864-8.432-7.242h21.314C-35.448,251.514-35.448,250.187-35.448,248.726
				"/>
		</g>
		<g style="enable-background:new    ;">
			<path style="fill:#297098;" d="M-176.627,280.644c0-1.117-0.021-2.033-0.081-2.926h1.567l0.101,1.786h0.04
				c0.481-1.028,1.605-2.032,3.212-2.032c1.344,0,3.432,0.893,3.432,4.602v6.455h-1.766v-6.232c0-1.742-0.583-3.195-2.249-3.195
				c-1.165,0-2.068,0.916-2.369,2.011c-0.08,0.246-0.12,0.58-0.12,0.915v6.501h-1.766V280.644z"/>
			<path style="fill:#297098;" d="M-164.505,283.48c0.04,2.659,1.567,3.754,3.332,3.754c1.265,0,2.028-0.246,2.69-0.558l0.301,1.406
				c-0.622,0.313-1.686,0.671-3.232,0.671c-2.991,0-4.779-2.19-4.779-5.451s1.727-5.83,4.558-5.83c3.172,0,4.015,3.105,4.015,5.093
				c0,0.402-0.04,0.715-0.059,0.915H-164.505z M-159.326,282.074c0.021-1.251-0.461-3.195-2.449-3.195
				c-1.786,0-2.57,1.833-2.709,3.195H-159.326z"/>
			<path style="fill:#297098;" d="M-154.671,277.718l1.386,2.323c0.362,0.604,0.663,1.162,0.984,1.764h0.061
				c0.321-0.648,0.642-1.206,0.963-1.786l1.365-2.301h1.908l-3.313,5.227l3.412,5.584h-2.007l-1.424-2.435
				c-0.383-0.626-0.703-1.228-1.044-1.876h-0.04c-0.322,0.648-0.663,1.228-1.024,1.876l-1.405,2.435h-1.948l3.453-5.517
				l-3.292-5.295H-154.671z"/>
			<path style="fill:#297098;" d="M-143.812,274.613v3.105h2.53v1.497h-2.53v5.83c0,1.34,0.341,2.1,1.325,2.1
				c0.461,0,0.803-0.067,1.024-0.134l0.08,1.474c-0.341,0.156-0.883,0.269-1.565,0.269c-0.823,0-1.487-0.291-1.908-0.827
				c-0.502-0.58-0.682-1.541-0.682-2.814v-5.897h-1.506v-1.497h1.506v-2.592L-143.812,274.613z"/>
			<path style="fill:#297098;" d="M-135.301,281.761v1.452h-4.958v-1.452H-135.301z"/>
			<path style="fill:#297098;" d="M-124.583,277.718c-0.04,0.782-0.08,1.653-0.08,2.97v6.277c0,2.48-0.442,3.999-1.386,4.936
				c-0.944,0.984-2.309,1.297-3.533,1.297c-1.165,0-2.45-0.313-3.233-0.893l0.442-1.497c0.642,0.446,1.647,0.848,2.85,0.848
				c1.807,0,3.132-1.05,3.132-3.774v-1.206h-0.04c-0.542,1.004-1.586,1.808-3.092,1.808c-2.408,0-4.135-2.278-4.135-5.271
				c0-3.663,2.148-5.74,4.377-5.74c1.686,0,2.61,0.982,3.031,1.876h0.04l0.08-1.63H-124.583z M-126.409,281.985
				c0-0.336-0.021-0.626-0.101-0.895c-0.321-1.139-1.184-2.077-2.469-2.077c-1.687,0-2.892,1.586-2.892,4.089
				c0,2.121,0.964,3.887,2.871,3.887c1.084,0,2.068-0.76,2.449-2.011c0.101-0.335,0.141-0.715,0.141-1.05V281.985z"/>
			<path style="fill:#297098;" d="M-120.752,283.48c0.04,2.659,1.567,3.754,3.332,3.754c1.265,0,2.028-0.246,2.69-0.558l0.301,1.406
				c-0.622,0.313-1.686,0.671-3.232,0.671c-2.991,0-4.779-2.19-4.779-5.451s1.727-5.83,4.558-5.83c3.172,0,4.015,3.105,4.015,5.093
				c0,0.402-0.04,0.715-0.059,0.915H-120.752z M-115.572,282.074c0.021-1.251-0.461-3.195-2.45-3.195
				c-1.786,0-2.57,1.833-2.709,3.195H-115.572z"/>
			<path style="fill:#297098;" d="M-111.68,280.644c0-1.117-0.019-2.033-0.08-2.926h1.565l0.101,1.786h0.04
				c0.482-1.028,1.607-2.032,3.212-2.032c1.346,0,3.433,0.893,3.433,4.602v6.455h-1.767v-6.232c0-1.742-0.582-3.195-2.248-3.195
				c-1.165,0-2.068,0.916-2.369,2.011c-0.08,0.246-0.12,0.58-0.12,0.915v6.501h-1.767V280.644z"/>
			<path style="fill:#297098;" d="M-86.77,288.038c-0.642,0.357-1.927,0.715-3.574,0.715c-3.814,0-6.685-2.681-6.685-7.617
				c0-4.713,2.871-7.908,7.067-7.908c1.687,0,2.751,0.402,3.212,0.671l-0.421,1.586c-0.662-0.358-1.605-0.626-2.73-0.626
				c-3.172,0-5.28,2.256-5.28,6.21c0,3.685,1.908,6.053,5.2,6.053c1.064,0,2.148-0.246,2.85-0.626L-86.77,288.038z"/>
			<path style="fill:#297098;" d="M-84.586,273.674c1.064-0.178,2.329-0.313,3.714-0.313c2.51,0,4.297,0.648,5.481,1.877
				c1.205,1.228,1.908,2.97,1.908,5.406c0,2.457-0.683,4.467-1.948,5.852c-1.264,1.408-3.352,2.168-5.982,2.168
				c-1.245,0-2.288-0.067-3.172-0.18V273.674z M-82.839,286.988c0.442,0.089,1.085,0.111,1.767,0.111
				c3.734,0,5.762-2.323,5.762-6.388c0.019-3.552-1.788-5.809-5.481-5.809c-0.904,0-1.586,0.09-2.049,0.202V286.988z"/>
			<path style="fill:#297098;" d="M-71.219,288.529v-15.056h1.908l4.335,7.617c1.004,1.766,1.788,3.352,2.43,4.893l0.04-0.022
				c-0.162-2.011-0.202-3.843-0.202-6.188v-6.3h1.647v15.056h-1.767l-4.295-7.639c-0.944-1.675-1.847-3.396-2.53-5.026l-0.061,0.022
				c0.101,1.899,0.141,3.708,0.141,6.21v6.433H-71.219z"/>
		</g>
	</g>
</g>
</svg>
